<mxfile host="65bd71144e">
    <diagram id="z0YEcE-kdBoXUe2ejgur" name="Servicing requests">
        <mxGraphModel dx="1132" dy="771" grid="1" gridSize="10" guides="1" tooltips="1" connect="1" arrows="1" fold="1" page="1" pageScale="1" pageWidth="850" pageHeight="1100" math="0" shadow="0">
            <root>
                <mxCell id="0"/>
                <mxCell id="1" parent="0"/>
                <mxCell id="4" value="" style="edgeStyle=none;html=1;fontFamily=Courier New;" edge="1" parent="1" source="2" target="3">
                    <mxGeometry relative="1" as="geometry"/>
                </mxCell>
                <mxCell id="2" value="Get" style="rounded=0;whiteSpace=wrap;html=1;fontFamily=Courier New;" vertex="1" parent="1">
                    <mxGeometry x="230" y="90" width="120" height="60" as="geometry"/>
                </mxCell>
                <mxCell id="6" value="" style="edgeStyle=none;html=1;fontFamily=Courier New;exitX=0;exitY=0.5;exitDx=0;exitDy=0;entryX=0.5;entryY=0;entryDx=0;entryDy=0;rounded=0;" edge="1" parent="1" source="3" target="5">
                    <mxGeometry relative="1" as="geometry">
                        <Array as="points">
                            <mxPoint x="150" y="230"/>
                        </Array>
                    </mxGeometry>
                </mxCell>
                <mxCell id="7" value="Tip/Trunk/Branch" style="edgeLabel;html=1;align=center;verticalAlign=middle;resizable=0;points=[];fontFamily=Courier New;" vertex="1" connectable="0" parent="6">
                    <mxGeometry x="-0.1625" y="3" relative="1" as="geometry">
                        <mxPoint x="27" y="-192" as="offset"/>
                    </mxGeometry>
                </mxCell>
                <mxCell id="13" value="" style="edgeStyle=none;rounded=0;html=1;fontFamily=Courier New;exitX=1;exitY=0.5;exitDx=0;exitDy=0;" edge="1" parent="1" source="3" target="12">
                    <mxGeometry relative="1" as="geometry">
                        <Array as="points">
                            <mxPoint x="440" y="230"/>
                        </Array>
                    </mxGeometry>
                </mxCell>
                <mxCell id="14" value="None" style="edgeLabel;html=1;align=center;verticalAlign=middle;resizable=0;points=[];fontFamily=Courier New;" vertex="1" connectable="0" parent="13">
                    <mxGeometry x="-0.2118" y="1" relative="1" as="geometry">
                        <mxPoint x="-17" y="-9" as="offset"/>
                    </mxGeometry>
                </mxCell>
                <mxCell id="3" value="Permission?" style="rhombus;whiteSpace=wrap;html=1;rounded=0;fontFamily=Courier New;" vertex="1" parent="1">
                    <mxGeometry x="240" y="180" width="100" height="100" as="geometry"/>
                </mxCell>
                <mxCell id="9" value="" style="edgeStyle=none;rounded=0;html=1;fontFamily=Courier New;" edge="1" parent="1" source="5" target="8">
                    <mxGeometry relative="1" as="geometry"/>
                </mxCell>
                <mxCell id="5" value="Get data" style="whiteSpace=wrap;html=1;rounded=0;fontFamily=Courier New;" vertex="1" parent="1">
                    <mxGeometry x="90" y="790" width="120" height="60" as="geometry"/>
                </mxCell>
                <mxCell id="8" value="AccessAckData" style="whiteSpace=wrap;html=1;rounded=0;fontFamily=Courier New;" vertex="1" parent="1">
                    <mxGeometry x="90" y="880" width="120" height="60" as="geometry"/>
                </mxCell>
                <mxCell id="18" value="" style="edgeStyle=none;rounded=0;html=1;fontFamily=Courier New;entryX=0.5;entryY=0;entryDx=0;entryDy=0;exitX=0;exitY=0.5;exitDx=0;exitDy=0;" edge="1" parent="1" source="12" target="17">
                    <mxGeometry relative="1" as="geometry">
                        <Array as="points">
                            <mxPoint x="350" y="290"/>
                        </Array>
                    </mxGeometry>
                </mxCell>
                <mxCell id="29" value="Yes" style="edgeLabel;html=1;align=center;verticalAlign=middle;resizable=0;points=[];fontFamily=Courier New;" vertex="1" connectable="0" parent="18">
                    <mxGeometry x="-0.2909" y="2" relative="1" as="geometry">
                        <mxPoint x="18" y="-12" as="offset"/>
                    </mxGeometry>
                </mxCell>
                <mxCell id="33" value="" style="edgeStyle=none;rounded=0;html=1;fontFamily=Courier New;exitX=1;exitY=0.5;exitDx=0;exitDy=0;" edge="1" parent="1" source="12" target="32">
                    <mxGeometry relative="1" as="geometry">
                        <Array as="points">
                            <mxPoint x="570" y="290"/>
                        </Array>
                    </mxGeometry>
                </mxCell>
                <mxCell id="34" value="No" style="edgeLabel;html=1;align=center;verticalAlign=middle;resizable=0;points=[];fontFamily=Courier New;" vertex="1" connectable="0" parent="33">
                    <mxGeometry x="-0.5625" relative="1" as="geometry">
                        <mxPoint x="-25" y="-10" as="offset"/>
                    </mxGeometry>
                </mxCell>
                <mxCell id="12" value="service locally?" style="rhombus;whiteSpace=wrap;html=1;rounded=0;fontFamily=Courier New;" vertex="1" parent="1">
                    <mxGeometry x="400" y="250" width="80" height="80" as="geometry"/>
                </mxCell>
                <mxCell id="20" value="" style="edgeStyle=none;rounded=0;html=1;fontFamily=Courier New;" edge="1" parent="1" source="17" target="19">
                    <mxGeometry relative="1" as="geometry">
                        <Array as="points">
                            <mxPoint x="270" y="370"/>
                        </Array>
                    </mxGeometry>
                </mxCell>
                <mxCell id="21" value="Acquire with&lt;br&gt;branch" style="edgeLabel;html=1;align=center;verticalAlign=middle;resizable=0;points=[];fontFamily=Courier New;" vertex="1" connectable="0" parent="20">
                    <mxGeometry x="-0.1846" y="1" relative="1" as="geometry">
                        <mxPoint x="9" y="-23" as="offset"/>
                    </mxGeometry>
                </mxCell>
                <mxCell id="23" value="Acquire with&lt;br&gt;Trunk" style="edgeStyle=none;rounded=0;html=1;fontFamily=Courier New;exitX=1;exitY=0.5;exitDx=0;exitDy=0;" edge="1" parent="1" source="17" target="22">
                    <mxGeometry x="-0.5" y="20" relative="1" as="geometry">
                        <Array as="points">
                            <mxPoint x="430" y="370"/>
                        </Array>
                        <mxPoint as="offset"/>
                    </mxGeometry>
                </mxCell>
                <mxCell id="17" value="Acquire policy for Gets" style="rhombus;whiteSpace=wrap;html=1;rounded=0;fontFamily=Courier New;" vertex="1" parent="1">
                    <mxGeometry x="300" y="320" width="100" height="100" as="geometry"/>
                </mxCell>
                <mxCell id="25" style="edgeStyle=none;rounded=0;html=1;exitX=0.5;exitY=1;exitDx=0;exitDy=0;entryX=0.25;entryY=0;entryDx=0;entryDy=0;fontFamily=Courier New;" edge="1" parent="1" source="19" target="24">
                    <mxGeometry relative="1" as="geometry">
                        <Array as="points">
                            <mxPoint x="270" y="500"/>
                            <mxPoint x="320" y="500"/>
                        </Array>
                    </mxGeometry>
                </mxCell>
                <mxCell id="19" value="Send Acquire with Branch" style="whiteSpace=wrap;html=1;fontFamily=Courier New;rounded=0;" vertex="1" parent="1">
                    <mxGeometry x="210" y="420" width="120" height="60" as="geometry"/>
                </mxCell>
                <mxCell id="26" style="edgeStyle=none;rounded=0;html=1;exitX=0.5;exitY=1;exitDx=0;exitDy=0;entryX=0.75;entryY=0;entryDx=0;entryDy=0;fontFamily=Courier New;" edge="1" parent="1" source="22" target="24">
                    <mxGeometry relative="1" as="geometry">
                        <Array as="points">
                            <mxPoint x="430" y="500"/>
                            <mxPoint x="380" y="500"/>
                        </Array>
                    </mxGeometry>
                </mxCell>
                <mxCell id="22" value="Send Acquire with Trunk" style="whiteSpace=wrap;html=1;fontFamily=Courier New;rounded=0;" vertex="1" parent="1">
                    <mxGeometry x="370" y="420" width="120" height="60" as="geometry"/>
                </mxCell>
                <mxCell id="28" style="edgeStyle=none;rounded=0;html=1;exitX=0.5;exitY=1;exitDx=0;exitDy=0;entryX=0.5;entryY=0;entryDx=0;entryDy=0;fontFamily=Courier New;" edge="1" parent="1" source="24" target="27">
                    <mxGeometry relative="1" as="geometry"/>
                </mxCell>
                <mxCell id="24" value="Wait for Grant Data" style="rounded=0;whiteSpace=wrap;html=1;fontFamily=Courier New;" vertex="1" parent="1">
                    <mxGeometry x="290" y="520" width="120" height="60" as="geometry"/>
                </mxCell>
                <mxCell id="31" value="" style="edgeStyle=none;rounded=0;html=1;fontFamily=Courier New;" edge="1" parent="1" source="27" target="30">
                    <mxGeometry relative="1" as="geometry"/>
                </mxCell>
                <mxCell id="27" value="Update permissions" style="rounded=0;whiteSpace=wrap;html=1;fontFamily=Courier New;fillColor=#1ba1e2;fontColor=#ffffff;strokeColor=#006EAF;" vertex="1" parent="1">
                    <mxGeometry x="290" y="610" width="120" height="60" as="geometry"/>
                </mxCell>
                <mxCell id="37" style="edgeStyle=none;rounded=0;html=1;exitX=0.5;exitY=1;exitDx=0;exitDy=0;entryX=1;entryY=0.5;entryDx=0;entryDy=0;fontFamily=Courier New;" edge="1" parent="1" source="30" target="5">
                    <mxGeometry relative="1" as="geometry">
                        <Array as="points">
                            <mxPoint x="350" y="820"/>
                        </Array>
                    </mxGeometry>
                </mxCell>
                <mxCell id="30" value="Send Grant Ack" style="whiteSpace=wrap;html=1;fontFamily=Courier New;rounded=0;" vertex="1" parent="1">
                    <mxGeometry x="290" y="700" width="120" height="60" as="geometry"/>
                </mxCell>
                <mxCell id="36" value="" style="edgeStyle=none;rounded=0;html=1;fontFamily=Courier New;" edge="1" parent="1" source="32" target="35">
                    <mxGeometry relative="1" as="geometry"/>
                </mxCell>
                <mxCell id="32" value="Forward Get to Lower cache" style="whiteSpace=wrap;html=1;fontFamily=Courier New;rounded=0;" vertex="1" parent="1">
                    <mxGeometry x="510" y="330" width="120" height="60" as="geometry"/>
                </mxCell>
                <mxCell id="38" style="edgeStyle=none;rounded=0;html=1;exitX=0.5;exitY=1;exitDx=0;exitDy=0;entryX=1;entryY=0.5;entryDx=0;entryDy=0;fontFamily=Courier New;" edge="1" parent="1" source="35" target="8">
                    <mxGeometry relative="1" as="geometry">
                        <Array as="points">
                            <mxPoint x="570" y="910"/>
                        </Array>
                    </mxGeometry>
                </mxCell>
                <mxCell id="39" value="Forward the response to&lt;br&gt;original requester" style="edgeLabel;html=1;align=center;verticalAlign=middle;resizable=0;points=[];fontFamily=Courier New;" vertex="1" connectable="0" parent="38">
                    <mxGeometry x="-0.8076" y="3" relative="1" as="geometry">
                        <mxPoint x="-83" y="334" as="offset"/>
                    </mxGeometry>
                </mxCell>
                <mxCell id="35" value="Wait for AccessAckData" style="whiteSpace=wrap;html=1;fontFamily=Courier New;rounded=0;" vertex="1" parent="1">
                    <mxGeometry x="510" y="420" width="120" height="60" as="geometry"/>
                </mxCell>
                <mxCell id="42" value="" style="edgeStyle=none;rounded=0;html=1;fontFamily=Courier New;" edge="1" parent="1" source="40" target="41">
                    <mxGeometry relative="1" as="geometry"/>
                </mxCell>
                <mxCell id="40" value="Put" style="rounded=0;whiteSpace=wrap;html=1;fontFamily=Courier New;" vertex="1" parent="1">
                    <mxGeometry x="780" y="100" width="120" height="60" as="geometry"/>
                </mxCell>
                <mxCell id="44" value="Tip" style="edgeStyle=none;rounded=0;html=1;fontFamily=Courier New;exitX=0;exitY=0.5;exitDx=0;exitDy=0;entryX=0.5;entryY=0;entryDx=0;entryDy=0;" edge="1" parent="1" target="43">
                    <mxGeometry x="-0.4167" y="-15" relative="1" as="geometry">
                        <mxPoint x="795" y="234" as="sourcePoint"/>
                        <mxPoint x="750" y="320" as="targetPoint"/>
                        <Array as="points">
                            <mxPoint x="710" y="234"/>
                        </Array>
                        <mxPoint as="offset"/>
                    </mxGeometry>
                </mxCell>
                <mxCell id="49" value="" style="edgeStyle=none;rounded=0;html=1;fontFamily=Courier New;exitX=0.5;exitY=1;exitDx=0;exitDy=0;entryX=0.5;entryY=0;entryDx=0;entryDy=0;" edge="1" parent="1" source="41" target="48">
                    <mxGeometry relative="1" as="geometry">
                        <Array as="points"/>
                    </mxGeometry>
                </mxCell>
                <mxCell id="41" value="Permission" style="rhombus;whiteSpace=wrap;html=1;fontFamily=Courier New;rounded=0;" vertex="1" parent="1">
                    <mxGeometry x="795" y="190" width="90" height="90" as="geometry"/>
                </mxCell>
                <mxCell id="46" value="" style="edgeStyle=none;rounded=0;html=1;fontFamily=Courier New;" edge="1" parent="1" source="43" target="45">
                    <mxGeometry relative="1" as="geometry"/>
                </mxCell>
                <mxCell id="43" value="Update Cacheline" style="whiteSpace=wrap;html=1;fontFamily=Courier New;rounded=0;" vertex="1" parent="1">
                    <mxGeometry x="650" y="330" width="120" height="60" as="geometry"/>
                </mxCell>
                <mxCell id="45" value="Update cachestate" style="whiteSpace=wrap;html=1;fontFamily=Courier New;rounded=0;" vertex="1" parent="1">
                    <mxGeometry x="650" y="440" width="120" height="60" as="geometry"/>
                </mxCell>
                <mxCell id="47" value="This includes overriding existing cacheline" style="text;html=1;strokeColor=none;fillColor=none;align=center;verticalAlign=middle;whiteSpace=wrap;rounded=0;fontFamily=Courier New;" vertex="1" parent="1">
                    <mxGeometry x="425" y="625" width="60" height="30" as="geometry"/>
                </mxCell>
                <mxCell id="48" value="" style="whiteSpace=wrap;html=1;fontFamily=Courier New;rounded=0;" vertex="1" parent="1">
                    <mxGeometry x="780" y="440" width="120" height="60" as="geometry"/>
                </mxCell>
            </root>
        </mxGraphModel>
    </diagram>
</mxfile>